<svg xmlns="http://www.w3.org/2000/svg" xmlns:xlink="http://www.w3.org/1999/xlink" viewBox="0,0,256,256" width="100px" height="100px" fill-rule="nonzero"><g fill="#f7f7f7" fill-rule="nonzero" stroke="none" stroke-width="1" stroke-linecap="butt" stroke-linejoin="miter" stroke-miterlimit="10" stroke-dasharray="" stroke-dashoffset="0" font-family="none" font-weight="none" font-size="none" text-anchor="none" style="mix-blend-mode: normal"><g transform="scale(8.53333,8.53333)"><path d="M27.341,19.52l-8,-14c-0.898,-1.644 -2.62,-2.516 -4.341,-2.52c-1.723,-0.004 -3.446,0.861 -4.341,2.52l-8,14c-1.37,2.397 -0.537,5.451 1.86,6.821c0.782,0.447 1.635,0.66 2.476,0.66c1.736,0 3.423,-0.905 4.346,-2.521l3.659,-6.403l3.659,6.404c0.923,1.615 2.609,2.521 4.346,2.521c0.841,0 1.693,-0.213 2.476,-0.66c2.397,-1.371 3.23,-4.425 1.86,-6.822zM11.587,20.018c-0.767,-1.775 -2.531,-3.018 -4.587,-3.018c-0.211,0 -0.417,0.016 -0.621,0.042l4.048,-7.084c0.075,0.175 0.136,0.353 0.233,0.523l3.189,5.581z"></path></g></g></svg>